<?xml version="1.0" encoding="UTF-8"?>
<svg version="1.1" xmlns="http://www.w3.org/2000/svg" width="512" height="512">
<path d="M0 0 C0.87398438 0.7734375 1.74796875 1.546875 2.6484375 2.34375 C3.13795898 2.77300781 3.62748047 3.20226562 4.13183594 3.64453125 C20.6663164 18.1973904 33.56355484 34.79728984 43.6484375 54.34375 C44.12772705 55.2713916 44.12772705 55.2713916 44.61669922 56.21777344 C54.93587506 76.51089393 61.63722654 99.55885551 61.88671875 122.41015625 C61.90154549 123.53161041 61.90154549 123.53161041 61.91667175 124.67572021 C62.25305212 156.75325075 57.50002439 185.94746584 41.6484375 214.34375 C41.13748535 215.27501709 41.13748535 215.27501709 40.61621094 216.22509766 C37.45590002 221.97341484 34.17128 227.60163351 30.52001953 233.05493164 C29.71251755 234.26216637 29.71251755 234.26216637 28.88870239 235.49378967 C28.47941498 236.10427658 28.07012756 236.71476349 27.6484375 237.34375 C28.23650775 237.92721128 28.824578 238.51067257 29.43046856 239.1118145 C43.75865527 253.32943383 58.07287257 267.5609855 72.37179089 281.80804253 C79.28706435 288.69756769 86.20693516 295.5823523 93.13793945 302.45605469 C99.18112335 308.44930055 105.21537646 314.45137344 111.23920518 320.46407521 C114.42717007 323.64553903 117.61934075 326.82250032 120.82225609 329.9889183 C123.8413837 332.97392237 126.84836412 335.97065672 129.84673309 338.97650719 C130.94484832 340.07325517 132.04720446 341.16577726 133.15423775 342.25352287 C140.49784977 349.47549107 147.42277643 356.61013496 148.2734375 367.34375 C147.92405939 373.04130077 146.06497045 377.78051864 142.6484375 382.34375 C136.78044081 387.41016395 131.26889128 389.85298378 123.50315666 389.65185833 C113.06172468 388.5249201 105.92211891 380.30857045 98.95654297 373.21948242 C97.82315281 372.08467934 96.68865545 370.95098117 95.55314636 369.81829834 C92.49502177 366.76159975 89.45248751 363.68980801 86.41265249 360.61493468 C83.22529916 357.39618135 80.02364169 354.19171891 76.82351685 350.985672 C70.77533088 344.92198758 64.73999657 338.84567898 58.70924866 332.76465636 C51.83880308 325.83819267 44.95403941 318.92603582 38.06807494 312.01500547 C23.91227991 297.8070429 9.77443541 283.58133411 -4.3515625 269.34375 C-5.09776855 269.81901627 -5.84397461 270.29428253 -6.61279297 270.78395081 C-7.59650879 271.41026901 -8.58022461 272.03658722 -9.59375 272.68188477 C-10.56683105 273.30152603 -11.53991211 273.9211673 -12.54248047 274.55958557 C-28.2466293 284.5339414 -44.00645307 292.40025035 -61.9140625 297.65625 C-62.69104492 297.88666992 -63.46802734 298.11708984 -64.26855469 298.35449219 C-78.96746161 302.4285482 -93.58651698 303.8761238 -108.7890625 303.71875 C-110.00021729 303.71177094 -110.00021729 303.71177094 -111.23583984 303.70465088 C-123.15533566 303.62428083 -134.73409349 303.23448172 -146.3515625 300.34375 C-147.59317139 300.04573486 -147.59317139 300.04573486 -148.85986328 299.74169922 C-161.65122991 296.59743952 -173.54676769 292.16012281 -185.3515625 286.34375 C-186.01381836 286.02148438 -186.67607422 285.69921875 -187.35839844 285.3671875 C-207.96451856 275.23404297 -227.56086107 260.04675022 -241.6640625 241.84375 C-242.12917236 241.24481934 -242.59428223 240.64588867 -243.07348633 240.02880859 C-272.43815689 201.74089719 -285.09308878 155.52849963 -278.90014648 107.58276367 C-276.22046288 89.33720631 -270.72414581 71.76448879 -262.3515625 55.34375 C-261.83770996 54.32643799 -261.83770996 54.32643799 -261.31347656 53.28857422 C-253.25708216 37.58498719 -242.55065481 24.02086317 -230.3515625 11.34375 C-229.73539063 10.66441406 -229.11921875 9.98507813 -228.484375 9.28515625 C-170.58108697 -52.60702495 -63.17710668 -53.88077567 0 0 Z M-196.3515625 39.34375 C-197.21265625 40.10300781 -198.07375 40.86226562 -198.9609375 41.64453125 C-220.6406466 62.05574673 -235.09074846 93.37255238 -236.47802734 123.04907227 C-237.37433206 157.50542347 -228.66625318 190.06641907 -205.3515625 216.34375 C-204.74441406 217.07078125 -204.13726562 217.7978125 -203.51171875 218.546875 C-183.56893806 242.24305886 -152.89221287 256.25623634 -122.5390625 260.03125 C-87.23970311 262.72892462 -53.18405003 252.79501141 -26.0625 229.76953125 C-0.0726575 206.51349062 15.84355014 176.39126365 18.6484375 141.34375 C20.55429783 105.30018833 8.24373724 72.38123541 -15.4140625 45.34375 C-20.32743104 40.15523283 -25.66877889 35.66365673 -31.3515625 31.34375 C-32.0940625 30.76238281 -32.8365625 30.18101563 -33.6015625 29.58203125 C-83.4369695 -7.53496459 -151.04869783 -0.95658986 -196.3515625 39.34375 Z " fill="#FFFFFF" transform="translate(322.3515625,80.65625)"/>
</svg>
